# xmcd
#
# Track frame offsets: 
#        150
#        2812
#        8940
#        13427
#        20047
#        29635
#        41800
#        45922
#        52052
#        65747
#        72677
#        77302
#        84165
#        92367
#        101405
#        113635
#        121255
#        130150
#        135070
#
# Disc length: 1906 seconds
#
# Revision: 0
# Processed by: cddbd v1.5.2PL0 Copyright (c) Steve Scherf et al.
# Submitted via: ExactAudioCopy v0.99pb4
#
DISCID=f1077013
DTITLE=Damnation - Burn em like a rat
DYEAR=1999
DGENRE=Punk Rock
TTITLE0=Fucked 2 Death
TTITLE1=Racial Retards
TTITLE2=Stranger Calls
TTITLE3=Speed Teeth
TTITLE4=Somebody Who Cares
TTITLE5=O Saraphine
TTITLE6=Civil Unrest
TTITLE7=U Against The World
TTITLE8=Far Before Our Time
TTITLE9=Swine
TTITLE10=Phuckerman
TTITLE11=Little Old Man Dog
TTITLE12=Hellrace
TTITLE13=No New Plan
TTITLE14=Getting Evil
TTITLE15=My Halloween
TTITLE16=Lord Of The Flies
TTITLE17=Reposession
TTITLE18=Drunk and Stupid
EXTD=
EXTT0=
EXTT1=
EXTT2=
EXTT3=
EXTT4=
EXTT5=
EXTT6=
EXTT7=
EXTT8=
EXTT9=
EXTT10=
EXTT11=
EXTT12=
EXTT13=
EXTT14=
EXTT15=
EXTT16=
EXTT17=
EXTT18=
PLAYORDER=
